<svg width="20" height="20" viewBox="0 0 20 20" fill="none" xmlns="http://www.w3.org/2000/svg">
<path fill-rule="evenodd" clip-rule="evenodd" d="M10.4375 2C8.146 2 7.8587 2.0097 6.9587 2.0508C6.0607 2.0917 5.4473 2.2344 4.9106 2.443C4.3558 2.6586 3.8852 2.9471 3.4161 3.4161C2.9471 3.8852 2.6586 4.3558 2.443 4.9106C2.2344 5.4473 2.0917 6.0607 2.0508 6.9587C2.0097 7.8587 2 8.146 2 10.4375C2 12.729 2.0097 13.0163 2.0508 13.9163C2.0917 14.8143 2.2344 15.4277 2.443 15.9644C2.6586 16.5192 2.9471 16.9898 3.4161 17.4589C3.8852 17.9279 4.3558 18.2164 4.9106 18.4321C5.4473 18.6406 6.0607 18.7833 6.9587 18.8242C7.8587 18.8653 8.146 18.875 10.4375 18.875C12.729 18.875 13.0163 18.8653 13.9163 18.8242C14.8143 18.7833 15.4277 18.6406 15.9644 18.4321C16.5192 18.2164 16.9898 17.9279 17.4589 17.4589C17.9279 16.9898 18.2164 16.5192 18.4321 15.9644C18.6406 15.4277 18.7833 14.8143 18.8242 13.9163C18.8653 13.0163 18.875 12.729 18.875 10.4375C18.875 8.146 18.8653 7.8587 18.8242 6.9587C18.7833 6.0607 18.6406 5.4473 18.4321 4.9106C18.2164 4.3558 17.9279 3.8852 17.4589 3.4161C16.9898 2.9471 16.5192 2.6586 15.9644 2.443C15.4277 2.2344 14.8143 2.0917 13.9163 2.0508C13.0163 2.0097 12.729 2 10.4375 2ZM10.4375 3.5203C12.6904 3.5203 12.9573 3.5289 13.847 3.5695C14.6696 3.607 15.1164 3.7444 15.4137 3.86C15.8075 4.013 16.0886 4.1959 16.3838 4.4912C16.6791 4.7864 16.862 5.0675 17.015 5.4613C17.1306 5.7586 17.268 6.2054 17.3055 7.028C17.3461 7.9177 17.3547 8.1846 17.3547 10.4375C17.3547 12.6904 17.3461 12.9573 17.3055 13.847C17.268 14.6696 17.1306 15.1164 17.015 15.4137C16.862 15.8075 16.6791 16.0886 16.3838 16.3838C16.0886 16.6791 15.8075 16.862 15.4137 17.015C15.1164 17.1306 14.6696 17.268 13.847 17.3055C12.9574 17.3461 12.6906 17.3547 10.4375 17.3547C8.1844 17.3547 7.9176 17.3461 7.028 17.3055C6.2054 17.268 5.7586 17.1306 5.4613 17.015C5.0675 16.862 4.7864 16.6791 4.4912 16.3838C4.1959 16.0886 4.013 15.8075 3.86 15.4137C3.7444 15.1164 3.607 14.6696 3.5695 13.847C3.5289 12.9573 3.5203 12.6904 3.5203 10.4375C3.5203 8.1846 3.5289 7.9177 3.5695 7.028C3.607 6.2054 3.7444 5.7586 3.86 5.4613C4.013 5.0675 4.1959 4.7864 4.4912 4.4912C4.7864 4.1959 5.0675 4.013 5.4613 3.86C5.7586 3.7444 6.2054 3.607 7.028 3.5695C7.9177 3.5289 8.1846 3.5203 10.4375 3.5203ZM10.4375 6.1047C8.0446 6.1047 6.1047 8.0446 6.1047 10.4375C6.1047 12.8304 8.0446 14.7703 10.4375 14.7703C12.8304 14.7703 14.7703 12.8304 14.7703 10.4375C14.7703 8.0446 12.8304 6.1047 10.4375 6.1047ZM10.4375 13.25C8.8842 13.25 7.625 11.9908 7.625 10.4375C7.625 8.8842 8.8842 7.625 10.4375 7.625C11.9908 7.625 13.25 8.8842 13.25 10.4375C13.25 11.9908 11.9908 13.25 10.4375 13.25ZM15.954 5.9336C15.954 5.3744 15.5006 4.921 14.9414 4.921C14.3823 4.921 13.929 5.3744 13.929 5.9336C13.929 6.4927 14.3823 6.946 14.9414 6.946C15.5006 6.946 15.954 6.4927 15.954 5.9336Z" fill="white"/>
</svg>
