<svg width="20" height="20" viewBox="0 0 20 20" fill="none" xmlns="http://www.w3.org/2000/svg">
<path fill-rule="evenodd" clip-rule="evenodd" d="M19 9.0263C19 5.152 14.9625 2 10 2C5.0377 2 1 5.152 1 9.0263C1 12.4994 4.2019 15.4086 8.527 15.9589C8.8199 16.0196 9.2188 16.1451 9.3198 16.386C9.4106 16.6047 9.3793 16.9474 9.3488 17.1685C9.3488 17.1685 9.2436 17.7796 9.2204 17.91C9.1814 18.1288 9.0395 18.7659 10 18.3767C10.9608 17.9874 15.1828 15.4404 17.071 13.3494C18.3754 11.9736 19 10.577 19 9.0263ZM4.4146 11.1339C4.1861 11.1339 4 10.9408 4 10.703V7.4397C4 7.2022 4.2116 7.0089 4.48 7.0089C4.7484 7.0089 4.9 7.2006 4.9 7.4397V10.2724H5.9854C6.2143 10.2724 6.4 10.4657 6.4 10.703C6.4 10.9408 6.2143 11.1339 5.9854 11.1339H4.4146ZM8.2 10.703C8.2 10.9408 7.9981 11.1339 7.7501 11.1339C7.5019 11.1339 7.3 10.9408 7.3 10.703V7.4397C7.3 7.2022 7.5019 7.0089 7.7501 7.0089C7.9981 7.0089 8.2 7.2022 8.2 7.4397V10.703ZM12.7 10.703C12.7 10.889 12.5717 11.0532 12.3797 11.1116C12.3316 11.1265 12.2813 11.1339 12.2309 11.1339C12.0849 11.1339 11.9449 11.0696 11.8566 10.9616L10.0372 8.6842V10.703C10.0372 10.9408 9.8272 11.1339 9.5687 11.1339C9.3103 11.1339 9.1 10.9408 9.1 10.703V7.4397C9.1 7.2541 9.2288 7.0899 9.4203 7.0312C9.4686 7.0162 9.5187 7.0089 9.5691 7.0089C9.7153 7.0089 9.8554 7.0731 9.9431 7.1812L11.7631 9.4587V7.4397C11.7631 7.2022 11.9735 7.0089 12.2316 7.0089C12.4902 7.0089 12.7 7.2022 12.7 7.4397V10.703ZM15.5853 8.6407C15.8142 8.6407 16 8.8339 16 9.0715C16 9.3088 15.8142 9.502 15.5853 9.502H14.4294V10.2724H15.5853C15.8138 10.2724 16 10.4657 16 10.703C16 10.9408 15.8138 11.1339 15.5853 11.1339H14.0145C13.7863 11.1339 13.6 10.9408 13.6 10.703V9.0726V9.0715V7.4397C13.6 7.2022 13.7859 7.0089 14.0145 7.0089H15.5853C15.8142 7.0089 16 7.2022 16 7.4397C16 7.6772 15.8142 7.8702 15.5853 7.8702H14.4294V8.6407H15.5853Z" fill="white"/>
</svg>
