<svg width="20" height="20" viewBox="0 0 20 20" fill="none" xmlns="http://www.w3.org/2000/svg">
<path fill-rule="evenodd" clip-rule="evenodd" d="M7.692 12.7593V7.1533L12.853 9.8974L7.692 12.7593ZM19.2503 6.0202C19.2503 6.0202 19.0602 4.6485 18.4773 4.0445C17.7379 3.2517 16.9091 3.2477 16.529 3.2013C13.808 3 9.7264 3 9.7264 3H9.718C9.718 3 5.6365 3 2.9154 3.2013C2.5353 3.2477 1.7068 3.2517 0.9671 4.0445C0.3841 4.6485 0.1944 6.0202 0.1944 6.0202C0.1944 6.0202 0 7.631 0 9.2418V10.7519C0 12.3627 0.1944 13.9735 0.1944 13.9735C0.1944 13.9735 0.3841 15.3452 0.9671 15.9492C1.7068 16.742 2.6784 16.717 3.1111 16.8C4.6667 16.9527 9.7222 17 9.7222 17C9.7222 17 13.808 16.9937 16.529 16.7924C16.9091 16.746 17.7379 16.742 18.4773 15.9492C19.0602 15.3452 19.2503 13.9735 19.2503 13.9735C19.2503 13.9735 19.4444 12.3627 19.4444 10.7519V9.2418C19.4444 7.631 19.2503 6.0202 19.2503 6.0202Z" fill="white"/>
</svg>
