<svg width="144" height="24" viewBox="0 0 144 24" fill="none" xmlns="http://www.w3.org/2000/svg">
<path fill-rule="evenodd" clip-rule="evenodd" d="M2.73517 0.626709V23.1H7.70948V14.4956H9.23067L15.7565 23.1H21.8942L14.1086 13.085C15.3873 12.3583 16.3911 11.555 17.0676 10.6564L17.069 10.6545L17.0705 10.6525C17.927 9.50198 18.3281 8.10009 18.3281 6.50571C18.3281 5.31106 18.0413 4.23688 17.4218 3.33095C16.8044 2.42808 15.9018 1.75837 14.7792 1.29294C13.6587 0.817849 11.8226 0.626709 9.41984 0.626709H2.73517ZM8.48527 10.2947H7.70948V4.81147H8.75919C9.74031 4.81147 10.5411 4.86524 11.1719 4.96548C11.8134 5.06742 12.2231 5.20907 12.4616 5.34871C12.8401 5.5704 13.1443 6.01615 13.1443 7.02134C13.1443 8.02435 12.7718 8.77017 12.0046 9.34768C11.2097 9.94595 10.0684 10.2947 8.48527 10.2947ZM29.0146 0.626709V23.1H45.526V18.9153H33.9889V13.4643H43.1412V9.27954H33.9889V4.81147H44.7848V0.626709H29.0146ZM83.6084 18.9153V23.1H88.5988V18.9153V4.81147V0.626709H83.6084V4.81147V18.9153ZM124.87 0.626709V23.1H141.381V18.9153H129.844V13.4643H138.996V9.27954H129.844V4.81147H140.64V0.626709H124.87Z" fill="#32302C"/>
<path d="M53.1689 23.1L62.0321 0.626709H66.4314L75.2946 23.1H69.982L68.0323 17.9277L66.3953 13.7429L63.9211 7.28911L57.8495 23.1H53.1689Z" fill="#E40505"/>
<path fill-rule="evenodd" clip-rule="evenodd" d="M114.848 8.15174L118.07 4.92964C115.919 1.94385 112.411 0 108.45 0C101.905 0 96.6 5.30544 96.6 11.85C96.6 18.3946 101.905 23.7 108.45 23.7C112.258 23.7 115.646 21.9043 117.814 19.1136L114.727 16.0266C113.46 17.8251 111.367 19 109 19C105.134 19 102 15.866 102 12C102 8.13401 105.134 5 109 5C111.444 5 113.596 6.25299 114.848 8.15174Z" fill="#32302C"/>
</svg>
