<svg width="96" height="17" viewBox="0 0 96 17" fill="none" xmlns="http://www.w3.org/2000/svg">
<path fill-rule="evenodd" clip-rule="evenodd" d="M1.82344 0.917725V15.9H5.13965V10.1636H6.15377L10.5044 15.9H14.5961L9.4057 9.22325C10.2582 8.7388 10.9274 8.20328 11.3784 7.60417L11.3793 7.60289L11.3803 7.6016C11.9513 6.83457 12.2188 5.89998 12.2188 4.83706C12.2188 4.04063 12.0275 3.3245 11.6145 2.72055C11.2029 2.11864 10.6012 1.67216 9.85279 1.36188C9.10579 1.04515 7.88172 0.917725 6.27989 0.917725H1.82344ZM5.65684 7.36304H5.13965V3.70757H5.83946C6.49354 3.70757 7.02741 3.74341 7.44793 3.81024C7.87558 3.8782 8.14876 3.97263 8.3077 4.06573C8.56003 4.21352 8.76289 4.51069 8.76289 5.18081C8.76289 5.84949 8.51455 6.3467 8.00305 6.7317C7.47315 7.13055 6.71226 7.36304 5.65684 7.36304ZM19.3431 0.917725V15.9H30.3507V13.1101H22.6593V9.47612H28.7608V6.68628H22.6593V3.70757H29.8565V0.917725H19.3431ZM55.7389 13.1101V15.9H59.0659V13.1101V3.70757V0.917725H55.7389V3.70757V13.1101ZM83.2465 0.917725V15.9H94.2541V13.1101H86.5627V9.47612H92.6643V6.68628H86.5627V3.70757H93.76V0.917725H83.2465Z" fill="#666666"/>
<path d="M35.4459 15.8999L41.3547 0.917725H44.2876L50.1964 15.8999H46.6546L45.3548 12.4517L44.2635 9.66186L42.6141 5.35932L38.5663 15.8999H35.4459Z" fill="#666666"/>
<path fill-rule="evenodd" clip-rule="evenodd" d="M76.5655 5.93449L78.7136 3.78643C77.2792 1.7959 74.9409 0.5 72.3 0.5C67.9369 0.5 64.4 4.03696 64.4 8.4C64.4 12.763 67.9369 16.3 72.3 16.3C74.8383 16.3 77.0971 15.1029 78.5424 13.2424L76.4844 11.1844C75.6398 12.3834 74.2447 13.1667 72.6667 13.1667C70.0893 13.1667 68 11.0773 68 8.5C68 5.92267 70.0893 3.83333 72.6667 3.83333C74.2963 3.83333 75.7309 4.66866 76.5655 5.93449Z" fill="#666666"/>
</svg>
